<svg xmlns="http://www.w3.org/2000/svg" width="24" height="26" fill="none"><path fill="#000" d="M15.693 1.846a.923.923 0 0 0-.923.923v1.846a.923.923 0 0 0 1.846 0 .923.923 0 1 1 1.846 0 2.769 2.769 0 0 1-3.84 2.555 14.87 14.87 0 0 1-1.124 4.24c-.759 1.734-1.756 2.97-2.655 3.973-.642.718-1.057 1.748-1.303 2.974-.245 1.218-.308 2.55-.308 3.795 0 .56-.203 1.235-.573 1.846h7.8a2.778 2.778 0 0 0-2.612-1.846h-.923a.923.923 0 0 1 0-1.846h.923c.316 0 .624.032.923.093v-2.862a.923.923 0 0 1 1.846 0v3.692A4.614 4.614 0 0 1 18.37 24h3.627a2.77 2.77 0 0 0-2.612-1.847.923.923 0 0 1-.923-.923V8.307a.923.923 0 0 1 .923-.923h1.846a.923.923 0 0 0 .923-.923V4.737a.924.924 0 0 0-.449-.792l-3.28-1.968a.923.923 0 0 0-.474-.131h-2.258ZM5.54 23.998c.58 0 1.026-.28 1.357-.692.35-.441.489-.936.489-1.154 0-1.292.064-2.763.343-4.159.279-1.384.788-2.778 1.737-3.84.844-.941 1.695-2.012 2.345-3.487.644-1.47 1.113-3.396 1.113-6.05V2.768A2.77 2.77 0 0 1 15.693 0h2.258c.502 0 .994.137 1.425.395l3.28 1.968A2.769 2.769 0 0 1 24 4.737V6.46a2.769 2.769 0 0 1-2.769 2.77h-.923v11.168A4.615 4.615 0 0 1 24 24.92a.923.923 0 0 1-.923.923H5.078a5.076 5.076 0 0 1-2.82-9.298.924.924 0 0 1 1.43.945.923.923 0 0 1-.404.589 3.231 3.231 0 0 0 1.794 5.918h.462Z"/></svg>