<svg xmlns="http://www.w3.org/2000/svg" width="24" height="24" fill="none"><g fill="#212124"><path d="M7 9V7h2v2H7ZM7 13v-2h2v2H7ZM11 9V7h2v2h-2ZM11 13v-2h2v2h-2Z"/><path fill-rule="evenodd" d="M3.4 5A2.6 2.6 0 0 1 6 2.4h8A2.6 2.6 0 0 1 16.6 5v3.4H19a1.6 1.6 0 0 1 1.6 1.6v12a.6.6 0 0 1-.6.6H4a.6.6 0 0 1-.6-.6V5Zm5.2 16.4h2.8v-3.8H8.6v3.8Zm4 0V17a.6.6 0 0 0-.6-.6H8a.6.6 0 0 0-.6.6v4.4H4.6V5A1.4 1.4 0 0 1 6 3.6h8A1.4 1.4 0 0 1 15.4 5v16.4h-2.8Zm4 0V9.6H19c.22 0 .4.179.4.4v11.4h-2.8Z" clip-rule="evenodd"/></g></svg>