<svg xmlns="http://www.w3.org/2000/svg" width="24" height="24" fill="none"><path fill="#212124" d="m21.985 7.982-9.74-5.84c-.32-.19-.71-.19-1.03 0l-9.73 5.84c-.47.28-.63.9-.34 1.37.19.31.52.49.86.49.18 0 .35-.05.51-.14l.22-.13v11.01c0 .55.45 1 1 1h16c.55 0 1-.45 1-1V9.563l.22.13c.47.28 1.09.13 1.37-.34.28-.47.13-1.09-.34-1.37Zm-11.75 6.76a.2.2 0 0 1-.2.2h-2.1a.2.2 0 0 1-.2-.2v-2.1c0-.11.09-.2.2-.2h2.1c.11 0 .2.09.2.2v2.1Zm5.5 0a.2.2 0 0 1-.2.2h-2.1a.2.2 0 0 1-.2-.2v-2.1c0-.11.09-.2.2-.2h2.1c.11 0 .2.09.2.2v2.1Z"/></svg>