<svg xmlns="http://www.w3.org/2000/svg" width="24" height="24" fill="none"><g fill="#212124"><path d="M21.37 11.91c-.29-.21-.6-.4-.93-.59l-.32-1.72h1.38c.33 0 .6-.27.6-.6 0-.33-.27-.6-.6-.6h-1.6l-.55-3.01c-.13-.7-.64-1.28-1.35-1.5-1.77-.56-3.82-.88-6-.88s-4.23.32-6 .88c-.7.22-1.22.8-1.35 1.5L4.1 8.4H2.5c-.33 0-.6.27-.6.6 0 .33.27.6.6.6h1.38l-.32 1.72c-.33.19-.65.38-.94.59a2.09 2.09 0 0 0-.87 1.71v7.48c0 .29.23.52.52.52H8c.29 0 .52-.23.52-.52v-1.47h6.97v1.47c0 .29.23.52.52.52h5.73c.29 0 .52-.23.52-.52v-7.48c0-.68-.32-1.32-.87-1.71h-.02ZM5.83 5.61c.05-.26.25-.48.53-.57 1.71-.54 3.66-.82 5.64-.82 1.98 0 3.93.28 5.64.82.28.09.48.3.53.57l.93 5.07c-2-.84-4.44-1.35-7.11-1.35s-5.1.5-7.1 1.35l.93-5.07h.01Zm15.21 9.95v4.87h-4.37v-2H7.31v2H2.95v-6.8c0-.3.14-.57.37-.74 2.11-1.5 5.28-2.36 8.68-2.36 3.4 0 6.57.86 8.68 2.36a.9.9 0 0 1 .37.74v1.93h-.01Z"/><path d="M7.6 13.58c-.75 0-1.35.6-1.35 1.35 0 .75.6 1.35 1.35 1.35.75 0 1.35-.6 1.35-1.35 0-.75-.6-1.35-1.35-1.35ZM16.4 13.58c-.75 0-1.35.6-1.35 1.35 0 .75.6 1.35 1.35 1.35.75 0 1.35-.6 1.35-1.35 0-.75-.6-1.35-1.35-1.35Z"/></g></svg>