<svg xmlns="http://www.w3.org/2000/svg" width="24" height="24" fill="none"><g fill="#212124"><path d="M12.884 11.279c1.22.254 2.34 1.031 2.97 2.127.303.524.132 1.138-.376 1.457-.892.556-2.217.81-3.477.81-1.26 0-2.594-.245-3.478-.81a1.076 1.076 0 0 1-.376-1.457c.622-1.096 1.75-1.857 2.97-2.127a2.247 2.247 0 0 1 .884-4.312 2.247 2.247 0 0 1 .883 4.312Z"/><path fill-rule="evenodd" d="M12.714 1.168a1.6 1.6 0 0 0-1.429 0l-8 3.995A1.6 1.6 0 0 0 2.4 6.595v2.256c0 3.654.778 6.52 2.315 8.804 1.537 2.283 3.793 3.926 6.645 5.208.406.182.874.183 1.282-.002 2.87-1.303 5.119-3.102 6.647-5.447 1.53-2.346 2.31-5.198 2.31-8.563V6.595a1.6 1.6 0 0 0-.884-1.432l-8-3.995Zm-.893 1.074a.4.4 0 0 1 .357 0l8 3.995a.4.4 0 0 1 .222.358v2.256c0 3.174-.735 5.789-2.116 7.907-1.381 2.12-3.435 3.783-6.138 5.01a.359.359 0 0 1-.294 0c-2.72-1.222-4.768-2.743-6.141-4.783C4.339 14.947 3.6 12.333 3.6 8.851V6.595a.4.4 0 0 1 .221-.358l8-3.995Z" clip-rule="evenodd"/></g></svg>