<svg xmlns="http://www.w3.org/2000/svg" width="24" height="24" fill="none"><g fill="#212124"><path fill-rule="evenodd" d="M15.605 7.355a1 1 0 0 1 1.415 0l3.937 3.938a1 1 0 0 1 0 1.414l-3.937 3.938a1 1 0 0 1-1.415-1.415l3.23-3.23-3.23-3.23a1 1 0 0 1 0-1.415Z" clip-rule="evenodd"/><path d="M10 5H5v14h5a1 1 0 1 1 0 2H4.75c-.454 0-.896-.175-1.226-.495A1.716 1.716 0 0 1 3 19.273V4.727c0-.468.192-.91.524-1.232.33-.32.772-.495 1.226-.495H10a1 1 0 1 1 0 2Z"/><path d="M8.75 11a1 1 0 1 0 0 2h11.5a1 1 0 1 0 0-2H8.75Z"/></g></svg>