<svg xmlns="http://www.w3.org/2000/svg" width="24" height="24" fill="none"><g fill="#212124"><path d="M10.3 12.55H8.2a.2.2 0 0 0-.2.2v2.1c0 .11.09.2.2.2h2.1a.2.2 0 0 0 .2-.2v-2.1a.2.2 0 0 0-.2-.2ZM15.8 12.55h-2.1a.2.2 0 0 0-.2.2v2.1c0 .11.09.2.2.2h2.1a.2.2 0 0 0 .2-.2v-2.1a.2.2 0 0 0-.2-.2Z"/><path d="m22.06 8.16-9.75-5.81a.605.605 0 0 0-.61 0L1.94 8.16c-.28.17-.38.54-.21.82.17.29.54.38.82.21l.44-.26V20.8c0 .55.45 1 1 1h16c.55 0 1-.45 1-1V8.93l.44.26c.1.06.2.08.31.08.2 0 .4-.1.52-.29.17-.28.08-.65-.21-.82h.01ZM19.8 20.59H4.2V8.21L12 3.57l7.8 4.64v12.38Z"/></g></svg>