<svg xmlns="http://www.w3.org/2000/svg" width="24" height="24" fill="none"><g fill="#212124"><path d="M8.07 13.265c2.163-.636 3.764-2.912 3.764-5.62 0-3.203-2.236-5.799-4.994-5.799-2.758 0-4.994 2.596-4.994 5.798 0 2.642 1.521 4.87 3.602 5.57l-.73 7.27a2.07 2.07 0 0 0 2.039 2.484 2.076 2.076 0 0 0 2.039-2.485l-.726-7.218ZM16.33 12.592a4.716 4.716 0 0 1-2.344-1.565c-.658-.798-.987-1.728-.987-2.79V1.964h2.288v6.271h1.145V1.965h2.289v6.271h1.144V1.965h2.289v6.271c0 1.063-.33 1.993-.988 2.79a4.716 4.716 0 0 1-2.343 1.566l.792 7.891a2.07 2.07 0 0 1-2.039 2.485 2.076 2.076 0 0 1-2.039-2.485l.793-7.89Z"/></g></svg>