<svg xmlns="http://www.w3.org/2000/svg" width="24" height="24" fill="none"><g fill="#212124"><path d="M16.4 11.742a.6.6 0 1 0-.986-.683l-4.058 5.86-2.494-2.909a.6.6 0 0 0-.91.781l3 3.5a.6.6 0 0 0 .948-.049l4.5-6.5Z"/><path fill-rule="evenodd" d="M8.21 2a.6.6 0 0 1 .6.6v.7h6.39v-.7a.6.6 0 1 1 1.2 0v.7h4.8a.8.8 0 0 1 .8.8V19a3 3 0 0 1-3 3H5a3 3 0 0 1-3-3V4.1a.8.8 0 0 1 .8-.8h4.81v-.7a.6.6 0 0 1 .6-.6Zm6.99 2.5v1.1a.6.6 0 1 0 1.2 0V4.5h4.4v3H3.2v-3h4.41v1.1a.6.6 0 0 0 1.2 0V4.5h6.39Zm-12 4.2h17.6V19a1.8 1.8 0 0 1-1.8 1.8H5A1.8 1.8 0 0 1 3.2 19V8.7Z" clip-rule="evenodd"/></g></svg>