<svg xmlns="http://www.w3.org/2000/svg" width="24" height="24" fill="none"><g fill="#212124"><path d="M12.884 11.279c1.22.254 2.34 1.031 2.97 2.127.303.524.132 1.138-.376 1.457-.892.556-2.217.81-3.477.81-1.26 0-2.594-.245-3.478-.81a1.076 1.076 0 0 1-.376-1.457c.622-1.096 1.75-1.857 2.97-2.127a2.247 2.247 0 0 1 .884-4.312 2.247 2.247 0 0 1 .883 4.312Z"/><path fill-rule="evenodd" d="M12.804 1.186a1.829 1.829 0 0 0-1.608 0l-8 3.923c-.61.3-.996.912-.996 1.583v2.215c0 3.618.784 6.473 2.35 8.757 1.563 2.281 3.854 3.916 6.728 5.184.458.202.986.204 1.446-.002 2.898-1.292 5.18-3.081 6.733-5.422 1.554-2.34 2.343-5.18 2.343-8.517V6.692c0-.67-.386-1.283-.996-1.583l-8-3.923Zm-.893 1.407a.203.203 0 0 1 .178 0l8 3.923c.068.033.111.101.111.176v2.215c0 3.086-.727 5.616-2.084 7.659-1.356 2.044-3.378 3.656-6.053 4.849a.162.162 0 0 1-.13 0c-2.698-1.192-4.71-2.665-6.056-4.629C4.532 14.826 3.8 12.298 3.8 8.907V6.692c0-.075.043-.143.11-.176l8-3.923Z" clip-rule="evenodd"/></g></svg>