<svg xmlns="http://www.w3.org/2000/svg" width="24" height="24" fill="none"><path fill="#212124" fill-rule="evenodd" d="m12 3.362-8.776 7.8v9.614h5.307v-4.694c0-1.96 1.509-3.47 3.469-3.47s3.47 1.51 3.47 3.47v4.694h5.306v-9.613L12 3.363Zm.542-1.156a.816.816 0 0 0-1.084 0L2.274 10.37a.816.816 0 0 0-.274.61v10.205c0 .45.365.816.816.816H8.94c.45 0 .816-.365.816-.816v-5.102c0-1.284.961-2.245 2.245-2.245 1.284 0 2.245.96 2.245 2.245v5.102c0 .45.365.816.816.816h6.123c.45 0 .816-.365.816-.816V10.98c0-.234-.1-.456-.274-.61l-9.184-8.164Z" clip-rule="evenodd"/></svg>