<svg xmlns="http://www.w3.org/2000/svg" width="22" height="18" fill="none"><g fill="#212124"><path fill-rule="evenodd" d="M.6 0a.6.6 0 0 0-.6.6v5.06a.6.6 0 0 0 .458.583C1.271 6.441 2 7.359 2 8.6s-.73 2.16-1.542 2.357A.6.6 0 0 0 0 11.54v5.06a.6.6 0 0 0 .6.6h20a.6.6 0 0 0 .6-.6v-5.06a.6.6 0 0 0-.458-.583C19.929 10.759 19.2 9.841 19.2 8.6s.73-2.159 1.542-2.357a.6.6 0 0 0 .458-.583V.6a.6.6 0 0 0-.6-.6H.6Zm.6 5.232V1.2h5.4v2.4h1.333V1.2H20v4.032c-1.213.53-2 1.886-2 3.368s.787 2.839 2 3.368V16H7.933v-2.4H6.6V16H1.2v-4.032c1.213-.53 2-1.886 2-3.368s-.787-2.839-2-3.368Z" clip-rule="evenodd"/><path d="M6.6 6.6h1.333v4H6.6v-4Z"/></g></svg>