<svg xmlns="http://www.w3.org/2000/svg" width="24" height="24" fill="none"><g fill="#212124"><path d="M7 7.4a.6.6 0 0 0 0 1.2h6a.6.6 0 1 0 0-1.2H7ZM6.4 12a.6.6 0 0 1 .6-.6h10a.6.6 0 1 1 0 1.2H7a.6.6 0 0 1-.6-.6ZM7 15.4a.6.6 0 1 0 0 1.2h3a.6.6 0 1 0 0-1.2H7Z"/><path fill-rule="evenodd" d="M5 2.4A2.6 2.6 0 0 0 2.4 5v14A2.6 2.6 0 0 0 5 21.6h14a2.6 2.6 0 0 0 2.6-2.6V5A2.6 2.6 0 0 0 19 2.4H5ZM3.6 5A1.4 1.4 0 0 1 5 3.6h14A1.4 1.4 0 0 1 20.4 5v14a1.4 1.4 0 0 1-1.4 1.4H5A1.4 1.4 0 0 1 3.6 19V5Z" clip-rule="evenodd"/></g></svg>