<svg xmlns="http://www.w3.org/2000/svg" width="24" height="24" fill="none"><g fill="#212124"><path fill-rule="evenodd" d="M2 4a3 3 0 0 1 3-3h14a3 3 0 0 1 3 3v10.082a3.001 3.001 0 0 0-3.168 1.213l-1.556 2.251a3 3 0 0 0-4.58 3.875L14.011 23H5a3 3 0 0 1-3-3V4Zm5.706 2C7.316 6 7 6.269 7 6.6c0 .331.316.6.706.6h8.588c.39 0 .706-.269.706-.6 0-.331-.316-.6-.706-.6H7.706Zm0 4.2c-.39 0-.706.269-.706.6 0 .331.316.6.706.6h8.588c.39 0 .706-.269.706-.6 0-.331-.316-.6-.706-.6H7.706Zm0 4.2c-.39 0-.706.268-.706.6 0 .331.316.6.706.6h2.588c.39 0 .706-.269.706-.6 0-.332-.316-.6-.706-.6H7.706Z" clip-rule="evenodd"/><path d="M21.837 17.268a.788.788 0 0 0-.147-1.106.791.791 0 0 0-1.108.148l-3.53 4.608-1.637-2.11a.791.791 0 0 0-1.109-.14.788.788 0 0 0-.14 1.107l2.265 2.92a.79.79 0 0 0 1.253-.005l4.153-5.422Z"/></g></svg>