<svg xmlns="http://www.w3.org/2000/svg" width="24" height="24" fill="none"><g fill="#212124" fill-rule="evenodd" clip-rule="evenodd"><path d="M21.283 2.97a.6.6 0 0 1 .317.53v16a.6.6 0 0 1-.933.5l-5.849-3.9H7a4.6 4.6 0 0 1 0-9.2h7.818l5.85-3.9a.6.6 0 0 1 .615-.03ZM20.4 4.622l-5.067 3.378a.6.6 0 0 1-.333.1H7a3.4 3.4 0 0 0 0 6.8h8a.6.6 0 0 1 .333.102l5.067 3.378V4.62Z"/><path d="M6.4 15.5a.6.6 0 0 1 .6-.6h6a.6.6 0 0 1 .6.6v2a3.6 3.6 0 0 1-7.2 0v-2Zm1.2.6v1.4a2.4 2.4 0 1 0 4.8 0v-1.4H7.6Z"/></g></svg>