<svg xmlns="http://www.w3.org/2000/svg" width="24" height="24" fill="none"><g fill="#212124"><path d="M7 7.2a.8.8 0 1 0 0 1.6h6a.8.8 0 0 0 0-1.6H7ZM6.2 12a.8.8 0 0 1 .8-.8h10a.8.8 0 0 1 0 1.6H7a.8.8 0 0 1-.8-.8ZM7 15.2a.8.8 0 0 0 0 1.6h3a.8.8 0 1 0 0-1.6H7Z"/><path fill-rule="evenodd" d="M5 2.2A2.8 2.8 0 0 0 2.2 5v14A2.8 2.8 0 0 0 5 21.8h14a2.8 2.8 0 0 0 2.8-2.8V5A2.8 2.8 0 0 0 19 2.2H5ZM3.8 5A1.2 1.2 0 0 1 5 3.8h14A1.2 1.2 0 0 1 20.2 5v14a1.2 1.2 0 0 1-1.2 1.2H5A1.2 1.2 0 0 1 3.8 19V5Z" clip-rule="evenodd"/></g></svg>