<svg xmlns="http://www.w3.org/2000/svg" width="24" height="24" fill="none"><path fill="#212124" d="M21.01 11.74c-.27-.19-.55-.37-.85-.54l-.21-1.17H21c.55 0 1-.45 1-1s-.45-1-1-1h-1.4l-.47-2.64a1.93 1.93 0 0 0-1.31-1.51C16.1 3.32 14.12 3 12 3s-4.1.32-5.82.88C5.5 4.1 5 4.69 4.87 5.39L4.4 8.03H3c-.55 0-1 .45-1 1s.45 1 1 1h1.05l-.21 1.17c-.3.17-.59.35-.86.54-.53.38-.84.99-.84 1.64v7.15c0 .28.22.5.5.5h4.02c.28 0 .5-.22.5-.5v-1.41h9.69v1.41c0 .28.22.5.5.5h4c.28 0 .5-.22.5-.5v-7.15c0-.65-.31-1.26-.84-1.64Zm-13.4 4.21c-.75 0-1.35-.6-1.35-1.35 0-.75.6-1.35 1.35-1.35.75 0 1.35.6 1.35 1.35 0 .75-.6 1.35-1.35 1.35Zm8.8 0c-.75 0-1.35-.6-1.35-1.35 0-.75.6-1.35 1.35-1.35.75 0 1.35.6 1.35 1.35 0 .75-.6 1.35-1.35 1.35Zm-4.4-6.68c-2.18 0-4.21.35-5.95.95l.79-4.45C8.42 5.26 10.2 5 12.02 5c1.82 0 3.6.27 5.17.77l.79 4.46c-1.74-.6-3.77-.95-5.96-.95l-.01-.01Z"/></svg>