<svg xmlns="http://www.w3.org/2000/svg" width="24" height="24" fill="none"><path fill="#212124" fill-rule="evenodd" d="M5.791 20.43h5.317a22.49 22.49 0 0 1-3.701-2.576C5.265 16.004 3 13.239 3 9.766 3 4.914 7.04 1 12 1s9 3.914 9 8.766c0 3.473-2.265 6.239-4.407 8.088a22.49 22.49 0 0 1-3.701 2.576h5.317c.437 0 .791.351.791.785a.788.788 0 0 1-.791.785H5.79A.788.788 0 0 1 5 21.215c0-.434.354-.785.791-.785Zm6.21-7.556c1.638 0 2.966-1.318 2.966-2.944S13.64 6.986 12 6.986 9.033 8.304 9.033 9.93s1.328 2.944 2.967 2.944Z" clip-rule="evenodd"/></svg>