<svg width="25" height="25" viewBox="0 0 25 25" fill="none" xmlns="http://www.w3.org/2000/svg">
<g id="icon_interest_regular">
<g id="vector">
<path d="M3.83049 4.57007C3.37209 4.57007 3.00049 4.94167 3.00049 5.40007C3.00049 5.85846 3.37209 6.23007 3.83049 6.23007H20.6305C21.0889 6.23007 21.4605 5.85846 21.4605 5.40007C21.4605 4.94167 21.0889 4.57007 20.6305 4.57007H3.83049Z" fill="#212124"/>
<path fill-rule="evenodd" clip-rule="evenodd" d="M17.6353 10.5877C17.3132 9.83618 16.2477 9.83619 15.9257 10.5877L14.8566 13.0822L12.3836 13.374C11.6194 13.4642 11.2891 14.3905 11.8239 14.9439L13.6422 16.8254L13.2174 19.3378C13.0826 20.1356 13.9603 20.7131 14.6396 20.2737L16.7805 18.8887L18.9213 20.2737C19.6007 20.7131 20.4783 20.1356 20.3435 19.3378L19.9188 16.8254L21.737 14.9439C22.2718 14.3905 21.9415 13.4642 21.1773 13.374L18.7043 13.0822L17.6353 10.5877ZM16.2161 14.124L16.7805 12.8072L17.3448 14.124C17.4758 14.4298 17.7602 14.6423 18.0906 14.6813L19.5194 14.8499L18.4687 15.9371C18.2634 16.1496 18.1712 16.447 18.2205 16.7384L18.4302 17.9789L17.2856 17.2385C16.9782 17.0396 16.5827 17.0396 16.2753 17.2385L15.1307 17.9789L15.3404 16.7384C15.3897 16.447 15.2975 16.1496 15.0922 15.9371L14.0415 14.8499L15.4703 14.6813C15.8007 14.6423 16.0851 14.4298 16.2161 14.124Z" fill="#212124"/>
<path d="M3.83049 11.5701C3.37209 11.5701 3.00049 11.9417 3.00049 12.4001C3.00049 12.8585 3.37209 13.2301 3.83049 13.2301H9.63049C10.0889 13.2301 10.4605 12.8585 10.4605 12.4001C10.4605 11.9417 10.0889 11.5701 9.63049 11.5701H3.83049Z" fill="#212124"/>
<path d="M3.83049 18.5701C3.37209 18.5701 3.00049 18.9417 3.00049 19.4001C3.00049 19.8585 3.37209 20.2301 3.83049 20.2301H9.63049C10.0889 20.2301 10.4605 19.8585 10.4605 19.4001C10.4605 18.9417 10.0889 18.5701 9.63049 18.5701H3.83049Z" fill="#212124"/>
</g>
</g>
</svg>
