<svg xmlns="http://www.w3.org/2000/svg" width="24" height="24" fill="none"><g fill="#212124" fill-rule="evenodd" clip-rule="evenodd"><path d="M5.87 5.986a1.56 1.56 0 0 1 .928-.306h10.404c.334 0 .66.107.929.306l3.198 2.37c.397.294.631.759.631 1.253v9.631a3.36 3.36 0 0 1-3.36 3.36H5.4a3.36 3.36 0 0 1-3.36-3.36V9.609c0-.494.234-.96.631-1.254L5.87 5.986ZM6.917 7.6 3.96 9.79v9.45c0 .795.645 1.44 1.44 1.44h13.2a1.44 1.44 0 0 0 1.44-1.44V9.79L17.083 7.6H6.917Z"/><path d="M9.36 4.96V7H7.44V4.6c0-.862.698-1.56 1.56-1.56h6c.862 0 1.56.698 1.56 1.56V7h-1.92V4.96H9.36ZM21 13.84H3v-1.92h18v1.92Z"/><path d="M8.4 10.48c.53 0 .96.43.96.96v2.64a.96.96 0 1 1-1.92 0v-2.64c0-.53.43-.96.96-.96ZM15.6 10.48c.53 0 .96.43.96.96v2.64a.96.96 0 1 1-1.92 0v-2.64c0-.53.43-.96.96-.96Z"/></g></svg>