<svg xmlns="http://www.w3.org/2000/svg" width="24" height="24" fill="none"><g fill="#212124" fill-rule="evenodd" clip-rule="evenodd"><path d="M9.333 3.867a3.468 3.468 0 0 1 3.374 2.666h8.626a.8.8 0 0 1 0 1.6h-8.626a3.468 3.468 0 0 1-6.748 0H2.667a.8.8 0 1 1 0-1.6h3.292a3.468 3.468 0 0 1 3.374-2.666Zm0 1.6a1.867 1.867 0 1 0 0 3.733 1.867 1.867 0 0 0 0-3.733ZM2.667 17.467h9.959a3.468 3.468 0 0 0 6.748 0h1.96a.8.8 0 0 0 0-1.6h-1.96a3.468 3.468 0 0 0-6.748 0h-9.96a.8.8 0 1 0 0 1.6ZM16 14.8a1.867 1.867 0 1 0 0 3.733 1.867 1.867 0 0 0 0-3.733Z"/></g></svg>