<svg xmlns="http://www.w3.org/2000/svg" width="24" height="24" fill="none"><path fill="#212124" fill-rule="evenodd" d="M11.458 2.206a.816.816 0 0 1 1.084 0l9.184 8.163a.816.816 0 0 1 .274.61v10.205c0 .45-.366.816-.816.816H15.06a.816.816 0 0 1-.816-.816v-5.102c0-1.284-.961-2.245-2.245-2.245-1.284 0-2.245.96-2.245 2.245v5.102c0 .45-.365.816-.816.816H2.816A.816.816 0 0 1 2 21.184V10.98c0-.234.1-.456.274-.61l9.184-8.164ZM8.122 20.367v-4.285c0-2.186 1.692-3.878 3.878-3.878 2.185 0 3.877 1.692 3.877 3.878v4.285h4.49v-9.02L12 3.908l-8.367 7.437v9.021h4.49Z" clip-rule="evenodd"/></svg>