<svg xmlns="http://www.w3.org/2000/svg" width="24" height="24" fill="none"><path fill="#212124" fill-rule="evenodd" d="M19.836 5.059a1 1 0 0 0-1.278.605L17.009 10h-2.903l-1.14-4.258a1 1 0 0 0-1.932 0L9.893 10H6.99L5.441 5.664a1 1 0 0 0-1.883.673L4.866 10H3.5a1 1 0 1 0 0 2h2.08l2.264 6.337a1 1 0 0 0 1.907-.078L11.428 12h1.144l1.676 6.259a1 1 0 0 0 1.908.078L18.419 12H20.5a1 1 0 1 0 0-2h-1.367l1.309-3.663a1 1 0 0 0-.606-1.278ZM8.65 14.645 7.704 12h1.653l-.708 2.645Zm6.702 0L14.642 12h1.653l-.945 2.645Z" clip-rule="evenodd"/></svg>