<svg xmlns="http://www.w3.org/2000/svg" width="24" height="24" fill="none"><path fill="#212124" fill-rule="evenodd" d="M1 9.454c0-4.173 4.209-7.333 8.963-7.333 2.666 0 5.16.993 6.837 2.602 3.436.904 6.2 3.565 6.2 6.972 0 2.543-1.524 4.923-3.814 6.265.406.807.765 1.387 1.034 1.777.171.247.306.419.393.524l.115.13a.815.815 0 0 1-.607 1.387h-.003l-.181-.012a6.88 6.88 0 0 1-.44-.056c-.372-.058-.89-.166-1.509-.365-1.177-.38-2.714-1.091-4.263-2.422-1.718-.046-3.296-.47-4.662-1.22a11.488 11.488 0 0 1-3.067 1.457c-.62.186-1.142.28-1.515.328a6.582 6.582 0 0 1-.443.043l-.186.007a.815.815 0 0 1-.535-1.431 2.17 2.17 0 0 0 .087-.093c.083-.093.213-.25.381-.487a12.86 12.86 0 0 0 1.038-1.802C2.53 14.384 1 12.001 1 9.455Zm9.88 7.294c.951.356 2.01.55 3.157.55.201 0 .395.074.545.208 1.34 1.207 2.675 1.863 3.706 2.22a20.76 20.76 0 0 1-.918-1.784.815.815 0 0 1 .402-1.08c2.196-1.006 3.598-3.084 3.598-5.167 0-1.803-1.106-3.469-2.888-4.528.287.714.444 1.482.444 2.287 0 3.903-3.68 6.92-8.046 7.294Zm-5.176.796c.285-.493.6-1.104.93-1.854a.815.815 0 0 0-.406-1.069C4.032 13.614 2.63 11.537 2.63 9.454c0-2.956 3.124-5.703 7.333-5.703s7.333 2.747 7.333 5.703c0 2.956-3.124 5.704-7.333 5.704a.815.815 0 0 0-.545.21c-1.346 1.211-2.685 1.844-3.714 2.176Z" clip-rule="evenodd"/></svg>