<svg xmlns="http://www.w3.org/2000/svg" width="24" height="24" fill="none"><g fill="#212124"><path d="m15.35 9.79-4.47-2.58c-.4-.23-.9-.23-1.3 0s-.65.66-.65 1.13v5.17c0 .46.25.89.65 1.13.2.12.42.17.65.17.23 0 .45-.06.65-.17l4.47-2.58c.4-.23.65-.66.65-1.13 0-.46-.25-.89-.65-1.13v-.01Zm-4.82 3.19V8.85l3.57 2.06-3.57 2.06v.01Z"/><path d="M21.76 6.24c-.41-1.24-1.33-2.26-2.67-2.95C17.1 2.26 14.72 1.74 12 1.74c-2.72 0-5.11.52-7.09 1.55C3.57 3.98 2.65 5 2.24 6.24c-.37 1.12-.54 3.22-.54 4.7s.17 3.58.54 4.7c.32.96.94 1.78 1.86 2.44v2.75c0 .46.25.89.65 1.13.2.12.42.17.65.17.23 0 .45-.06.65-.17l3.41-1.97c.81.11 1.67.17 2.54.17 2.72 0 5.11-.52 7.09-1.55 1.34-.69 2.26-1.71 2.67-2.95.37-1.12.54-3.22.54-4.7s-.17-3.57-.54-4.7v-.02Zm-1.52 8.89c-.28.85-.91 1.53-1.88 2.03-1.76.91-3.89 1.37-6.36 1.37-.89 0-1.76-.06-2.58-.19l-.28-.04-3.45 1.99v-3.1l-.38-.23c-.79-.49-1.32-1.11-1.56-1.83-.26-.79-.46-2.59-.46-4.19 0-1.6.2-3.4.46-4.19.28-.85.91-1.53 1.88-2.03 1.76-.91 3.89-1.37 6.36-1.37s4.6.46 6.36 1.37c.97.5 1.6 1.19 1.88 2.03.26.79.46 2.59.46 4.19 0 1.6-.2 3.4-.46 4.19h.01Z"/></g></svg>