<svg xmlns="http://www.w3.org/2000/svg" width="24" height="24" fill="none"><g fill="#212124" fill-rule="evenodd" clip-rule="evenodd"><path d="M5 1a3 3 0 0 0-3 3v16a3 3 0 0 0 3 3h11.04l-1.82-1.82a2.8 2.8 0 0 1 0-3.96l3-3a2.789 2.789 0 0 1 1.78-.813V13.4h3V4a3 3 0 0 0-3-3H5Zm2 5.6c0-.331.316-.6.706-.6h8.588c.39 0 .706.269.706.6 0 .331-.316.6-.706.6H7.706C7.316 7.2 7 6.931 7 6.6Zm0 4.2c0-.331.316-.6.706-.6h8.588c.39 0 .706.269.706.6 0 .331-.316.6-.706.6H7.706c-.39 0-.706-.269-.706-.6ZM7 15c0-.332.316-.6.706-.6h2.588c.39 0 .706.268.706.6 0 .331-.316.6-.706.6H7.706C7.316 15.6 7 15.33 7 15Z"/><path d="M16.9 19.2a.8.8 0 0 1 .8-.8h4.5a.8.8 0 0 1 0 1.6h-4.5a.8.8 0 0 1-.8-.8Z"/><path d="M19.766 15.634a.8.8 0 0 0-1.132 0l-3 3a.8.8 0 0 0 0 1.132l3 3a.8.8 0 0 0 1.132-1.132L17.33 19.2l2.435-2.434a.8.8 0 0 0 0-1.132Z"/></g></svg>