<svg xmlns="http://www.w3.org/2000/svg" width="24" height="24" fill="none"><g fill="#212124"><path fill-rule="evenodd" d="M15.747 7.497a.8.8 0 0 1 1.131 0l3.938 3.937a.8.8 0 0 1 0 1.132l-3.938 3.937a.8.8 0 0 1-1.131-1.131L19.119 12l-3.372-3.372a.8.8 0 0 1 0-1.131Z" clip-rule="evenodd"/><path d="M10 4.8H4.8v14.4H10a.8.8 0 1 1 0 1.6H4.75c-.403 0-.795-.155-1.087-.439a1.516 1.516 0 0 1-.463-1.088V4.727c0-.413.17-.804.463-1.088A1.562 1.562 0 0 1 4.75 3.2H10a.8.8 0 1 1 0 1.6Z"/><path d="M8.75 11.2a.8.8 0 0 0 0 1.6h11.5a.8.8 0 0 0 0-1.6H8.75Z"/></g></svg>