<svg xmlns="http://www.w3.org/2000/svg" width="24" height="24" fill="none"><g fill="#212124"><path fill-rule="evenodd" d="M16.32 6.133V4.6A1.32 1.32 0 0 0 15 3.28H9A1.32 1.32 0 0 0 7.68 4.6v1.533h-.882a.6.6 0 0 0-.357.118l-3.198 2.37A.6.6 0 0 0 3 9.101V12.4h4.68v-.48a.72.72 0 1 1 1.44 0v.48h5.76v-.48a.72.72 0 1 1 1.44 0v.48H21V9.102a.6.6 0 0 0-.243-.482L17.56 6.251a.6.6 0 0 0-.357-.118h-.882ZM9.12 4.72v1.413h5.76V4.72H9.12Z" clip-rule="evenodd"/><path d="M21 19a2.4 2.4 0 0 1-2.4 2.4H5.4A2.4 2.4 0 0 1 3 19v-5.16h4.68v.24a.72.72 0 0 0 1.44 0v-.24h5.76v.24a.72.72 0 1 0 1.44 0v-.24H21V19Z"/></g></svg>