<svg xmlns="http://www.w3.org/2000/svg" width="24" height="24" fill="none"><g fill="#212124" fill-rule="evenodd" clip-rule="evenodd"><path d="M12 3.1c4.974 0 8.9 3.63 8.9 7.98 0 2.495-1.28 4.74-3.314 6.213a.6.6 0 0 0-.249.486v2.648l-.648-.394c-.798-.482-1.728-1.034-2.066-1.188a.6.6 0 0 0-.384-.038 9.885 9.885 0 0 1-2.24.254c-4.973 0-8.9-3.629-8.9-7.98C3.1 6.729 7.027 3.1 12 3.1Zm5.622 18.91a.6.6 0 0 0 .915-.51v-3.42c2.168-1.674 3.563-4.18 3.563-7 0-5.126-4.58-9.18-10.1-9.18S1.9 5.954 1.9 11.08c0 5.127 4.58 9.181 10.1 9.181.789 0 1.558-.082 2.296-.238.363.194 1.074.615 1.772 1.037a182.21 182.21 0 0 1 1.426.871l.128.08Z"/><path d="M7.525 9.5a.6.6 0 0 1 .6-.6H16a.6.6 0 1 1 0 1.2H8.125a.6.6 0 0 1-.6-.6ZM7.525 13a.6.6 0 0 1 .6-.6H16a.6.6 0 0 1 0 1.2H8.125a.6.6 0 0 1-.6-.6Z"/></g></svg>