<svg xmlns="http://www.w3.org/2000/svg" width="24" height="24" fill="none"><path fill="#212124" fill-rule="evenodd" d="M2.942 4.946a5.612 5.612 0 0 1 8.135 0l.91.95.91-.95a5.613 5.613 0 0 1 8.136 0l.001.001c2.26 2.368 1.897 5.94.043 8.37v.001c-1.896 2.473-4.088 4.468-5.8 5.843a37.013 37.013 0 0 1-2.125 1.588 25.638 25.638 0 0 1-.789.524l-.045.028-.012.007-.005.003-.314-.511-.305.517-.001-.001-.004-.002-.012-.008-.047-.028c-.04-.024-.1-.06-.175-.108-.151-.095-.37-.234-.641-.417-.544-.364-1.305-.9-2.176-1.59-1.74-1.375-3.937-3.376-5.737-5.857l-.001-.001c-1.761-2.44-2.216-5.996.054-8.36ZM11.987 20.8l-.305.517c.192.112.43.11.62-.006l-.315-.511Zm-.006-.71c.128-.083.293-.193.489-.329.507-.35 1.224-.868 2.055-1.536 1.666-1.337 3.78-3.265 5.598-5.636 1.603-2.101 1.784-4.988.044-6.812a4.412 4.412 0 0 0-6.404 0L12.42 7.179a.6.6 0 0 1-.867 0l-1.342-1.402a4.412 4.412 0 0 0-6.405 0c-1.73 1.801-1.5 4.674.053 6.824 1.714 2.362 3.822 4.285 5.51 5.622a33.282 33.282 0 0 0 2.1 1.534c.205.138.378.25.511.334Z" clip-rule="evenodd"/></svg>