<svg xmlns="http://www.w3.org/2000/svg" width="24" height="24" fill="none"><g fill="#212124"><path d="M18.6 9.22c0 3.95-3.96 7.22-8.8 7.22-2.365 2.184-4.73 2.803-5.88 2.978-.25.038-.401-.284-.248-.49.404-.546 1.03-1.535 1.728-3.164C2.76 14.523 1 11.928 1 9.22 1 5.272 4.96 2 9.8 2c4.84 0 8.8 3.272 8.8 7.22Z"/><path d="M19.536 6.079c-.232-.145-.493.127-.386.383.355.855.55 1.78.55 2.758 0 4.639-4.396 8.12-9.402 8.338a.221.221 0 0 0-.135.054l-.054.046c-.157.134-.128.393.061.473 1.21.515 2.566.792 4.03.792 2.385 2.202 4.77 2.871 5.91 3.073.246.043.397-.26.249-.466-.403-.557-1.042-1.567-1.759-3.171 2.64-1.241 4.4-3.836 4.4-6.544 0-2.361-1.375-4.429-3.464-5.736Z"/></g></svg>