<svg xmlns="http://www.w3.org/2000/svg" width="24" height="24" fill="none"><path fill="#212124" fill-rule="evenodd" d="M12 4.126 9.775 8.63a1.664 1.664 0 0 1-1.253.91l-4.974.722 3.598 3.504c.393.382.572.933.48 1.473l-.85 4.95 4.45-2.338a1.664 1.664 0 0 1 1.548 0l4.45 2.338-.85-4.95c-.092-.54.087-1.09.48-1.473l3.598-3.504-4.974-.723a1.664 1.664 0 0 1-1.253-.91L12 4.127Zm.416-1.868a.464.464 0 0 0-.832 0L8.699 8.1a.464.464 0 0 1-.35.254l-6.451.937a.464.464 0 0 0-.257.79l4.668 4.547c.11.106.16.26.133.41l-1.102 6.42a.464.464 0 0 0 .674.489l5.77-3.031a.464.464 0 0 1 .432 0l5.77 3.03c.34.18.739-.11.674-.488l-1.102-6.42a.463.463 0 0 1 .133-.41l4.668-4.547a.464.464 0 0 0-.257-.79l-6.451-.937a.464.464 0 0 1-.35-.254l-2.885-5.84Z" clip-rule="evenodd"/></svg>