<svg xmlns="http://www.w3.org/2000/svg" width="24" height="24" fill="none"><path fill="#212124" fill-rule="evenodd" d="M12 2.2c-5.412 0-9.8 4.388-9.8 9.8 0 5.413 4.388 9.8 9.8 9.8 5.412 0 9.8-4.387 9.8-9.8 0-5.412-4.388-9.8-9.8-9.8Zm-3.6 9.6a1.4 1.4 0 1 0 0-2.8 1.4 1.4 0 0 0 0 2.8Zm8.6-1.4a1.4 1.4 0 1 1-2.8 0 1.4 1.4 0 0 1 2.8 0Zm-7.36 6.08a.8.8 0 0 1-1.28-.96c.296-.395 1.454-1.82 3.64-1.82 2.187 0 3.344 1.425 3.64 1.82a.8.8 0 1 1-1.28.96A2.908 2.908 0 0 0 12 15.3a2.908 2.908 0 0 0-2.36 1.18Z" clip-rule="evenodd"/></svg>