<svg xmlns="http://www.w3.org/2000/svg" width="24" height="24" fill="none"><g fill="#212124"><path d="m15.25 9.97-4.47-2.58c-.34-.2-.75-.2-1.1 0-.34.2-.55.56-.55.95v5.17c0 .4.21.75.55.95a1.084 1.084 0 0 0 1.1 0l4.47-2.58c.34-.2.55-.56.55-.95 0-.39-.21-.75-.55-.95v-.01Zm-4.92 3.36-.05-4.85 4.22 2.44-4.17 2.41Z"/><path d="M21.57 6.3c-.39-1.19-1.28-2.17-2.57-2.84-1.96-1.02-4.31-1.53-7-1.53-2.69 0-5.04.52-7 1.53-1.29.67-2.18 1.65-2.57 2.84-.35 1.05-.53 3.13-.53 4.63s.18 3.58.53 4.63c.31.95.94 1.75 1.87 2.39v2.85c0 .4.21.75.55.95a1.084 1.084 0 0 0 1.1 0l3.47-2c.83.11 1.69.17 2.58.17 2.69 0 5.04-.52 7-1.53 1.29-.67 2.18-1.65 2.57-2.84.35-1.05.53-3.13.53-4.63s-.18-3.58-.53-4.63v.01Zm-1.14 8.89c-.3.9-.96 1.62-1.98 2.15-1.78.93-3.95 1.4-6.45 1.4-.9 0-1.78-.06-2.61-.19l-.21-.03-3.69 2.13v-3.34l-.28-.18c-.84-.52-1.39-1.17-1.64-1.94-.27-.81-.47-2.64-.47-4.26 0-1.62.2-3.45.47-4.26.3-.9.96-1.62 1.98-2.15 1.78-.93 3.95-1.4 6.45-1.4s4.66.47 6.45 1.4c1.02.53 1.69 1.25 1.98 2.15.27.81.47 2.64.47 4.26 0 1.62-.2 3.45-.47 4.26Z"/></g></svg>