<svg xmlns="http://www.w3.org/2000/svg" width="24" height="18" fill="none"><path fill="#000" d="M12.768 17.072h3.185a3.18 3.18 0 0 0 2.972-2.05 4.686 4.686 0 0 0 3.7-1.369 4.725 4.725 0 0 0 0-6.666L16.293.667a2.27 2.27 0 0 0-3.215 0 2.282 2.282 0 0 0 0 3.22l2.013 1.996c-.173.233-.327.48-.46.738a5.33 5.33 0 0 0-.807-.061H8.31c-.493 0-.97.067-1.423.192A3.75 3.75 0 1 0 3 12.482v1.401a3.186 3.186 0 0 0 3.183 3.19h6.585Zm2.465-15.346 6.33 6.32a3.225 3.225 0 0 1-.001 4.548 3.192 3.192 0 0 1-3.02.853l-.823-.2-.098.84a1.682 1.682 0 0 1-1.668 1.485h-2.439v-.15c0-1.69-1.53-2.865-3.183-2.865H8.25a.75.75 0 1 0 0 1.5h2.08c1.035 0 1.683.696 1.683 1.365v.15h-5.83a1.688 1.688 0 0 1-1.684-1.69v-1.996A3.82 3.82 0 0 1 8.31 8.06h5.515c.357 0 .703.05 1.029.14l.634.18.258-.607c.167-.39.398-.85.708-1.182l.755-.723-3.068-3.04a.781.781 0 0 1 .25-1.27.77.77 0 0 1 .842.168ZM5.486 7.374a5.331 5.331 0 0 0-2.405 3.58 2.25 2.25 0 1 1 2.405-3.58Z"/></svg>