<svg width="25" height="25" viewBox="0 0 25 25" fill="none" xmlns="http://www.w3.org/2000/svg">
<g id="icon_interest/Thin">
<g id="vector">
<path fill-rule="evenodd" clip-rule="evenodd" d="M3.23071 5.39999C3.23071 5.06862 3.49934 4.79999 3.83071 4.79999H20.6307C20.9621 4.79999 21.2307 5.06862 21.2307 5.39999C21.2307 5.73136 20.9621 5.99999 20.6307 5.99999H3.83071C3.49934 5.99999 3.23071 5.73136 3.23071 5.39999Z" fill="#212124"/>
<path fill-rule="evenodd" clip-rule="evenodd" d="M3.23071 12.4C3.23071 12.0686 3.49934 11.8 3.83071 11.8H9.63071C9.96208 11.8 10.2307 12.0686 10.2307 12.4C10.2307 12.7314 9.96208 13 9.63071 13H3.83071C3.49934 13 3.23071 12.7314 3.23071 12.4Z" fill="#212124"/>
<path fill-rule="evenodd" clip-rule="evenodd" d="M3.23071 19.4C3.23071 19.0686 3.49934 18.8 3.83071 18.8H9.63071C9.96208 18.8 10.2307 19.0686 10.2307 19.4C10.2307 19.7314 9.96208 20 9.63071 20H3.83071C3.49934 20 3.23071 19.7314 3.23071 19.4Z" fill="#212124"/>
<path fill-rule="evenodd" clip-rule="evenodd" d="M17.4241 10.6782C17.1817 10.1126 16.3797 10.1126 16.1373 10.6782L15.0159 13.2949L12.4108 13.6024C11.8356 13.6702 11.587 14.3675 11.9895 14.784L13.8885 16.7491L13.4445 19.3761C13.3429 19.9765 14.0036 20.4113 14.5149 20.0805L16.7807 18.6147L19.0465 20.0805C19.5578 20.4113 20.2184 19.9765 20.1169 19.3761L19.6728 16.7491L21.5719 14.784C21.9744 14.3675 21.7258 13.6702 21.1505 13.6024L18.5455 13.2949L17.4241 10.6782ZM16.0049 14.0333L16.7807 12.2233L17.5564 14.0333C17.6551 14.2635 17.8691 14.4234 18.1178 14.4528L20.0076 14.6758L18.6343 16.0968C18.4798 16.2568 18.4104 16.4807 18.4475 16.7L18.7443 18.4558L17.1609 17.4315C16.9295 17.2818 16.6319 17.2818 16.4005 17.4315L14.817 18.4558L15.1139 16.7C15.1509 16.4807 15.0816 16.2568 14.927 16.0968L13.5537 14.6758L15.4436 14.4528C15.6923 14.4234 15.9063 14.2635 16.0049 14.0333Z" fill="#212124"/>
</g>
</g>
</svg>
