<svg width="24" height="24" viewBox="0 0 24 24" fill="none" xmlns="http://www.w3.org/2000/svg">
<path fill-rule="evenodd" clip-rule="evenodd" d="M2.73071 4.89999C2.73071 4.56862 2.99934 4.29999 3.33071 4.29999H20.1307C20.4621 4.29999 20.7307 4.56862 20.7307 4.89999C20.7307 5.23136 20.4621 5.49999 20.1307 5.49999H3.33071C2.99934 5.49999 2.73071 5.23136 2.73071 4.89999Z" fill="#212124"/>
<path fill-rule="evenodd" clip-rule="evenodd" d="M2.73071 11.9C2.73071 11.5686 2.99934 11.3 3.33071 11.3H9.13071C9.46208 11.3 9.73071 11.5686 9.73071 11.9C9.73071 12.2314 9.46208 12.5 9.13071 12.5H3.33071C2.99934 12.5 2.73071 12.2314 2.73071 11.9Z" fill="#212124"/>
<path fill-rule="evenodd" clip-rule="evenodd" d="M2.73071 18.9C2.73071 18.5686 2.99934 18.3 3.33071 18.3H9.13071C9.46208 18.3 9.73071 18.5686 9.73071 18.9C9.73071 19.2314 9.46208 19.5 9.13071 19.5H3.33071C2.99934 19.5 2.73071 19.2314 2.73071 18.9Z" fill="#212124"/>
<path fill-rule="evenodd" clip-rule="evenodd" d="M16.9241 10.1782C16.6817 9.61257 15.8797 9.61257 15.6373 10.1782L14.5159 12.7949L11.9108 13.1024C11.3356 13.1702 11.087 13.8675 11.4895 14.284L13.3885 16.2491L12.9445 18.8761C12.8429 19.4765 13.5036 19.9113 14.0149 19.5805L16.2807 18.1147L18.5465 19.5805C19.0578 19.9113 19.7184 19.4765 19.6169 18.8761L19.1728 16.2491L21.0719 14.284C21.4744 13.8675 21.2258 13.1702 20.6505 13.1024L18.0455 12.7949L16.9241 10.1782ZM15.5049 13.5333L16.2807 11.7233L17.0564 13.5333C17.1551 13.7635 17.3691 13.9234 17.6178 13.9528L19.5076 14.1758L18.1343 15.5968C17.9798 15.7568 17.9104 15.9807 17.9475 16.2L18.2443 17.9558L16.6609 16.9315C16.4295 16.7818 16.1319 16.7818 15.9005 16.9315L14.317 17.9558L14.6139 16.2C14.6509 15.9807 14.5816 15.7568 14.427 15.5968L13.0537 14.1758L14.9436 13.9528C15.1923 13.9234 15.4063 13.7635 15.5049 13.5333Z" fill="#212124"/>
</svg>
